# xmcd
#
# Track frame offsets:
#	183
#	1808
#	17408
#	30458
#	45558
#	63958
#	75933
#	84558
#	101183
#	113183
#	132658
#	143808
#	157658
#	180908
#	192108
#
# Disc length: 2815 seconds
#
# Revision: 1
# Processed by: cddbd v1.5.1PL2 Copyright (c) Steve Scherf et al.
# Submitted via: audiograbber 1.83.01
#
DISCID=a80afd0f
DTITLE=Fiedel Joe and Co - "Thank God It`s Friday"
DYEAR=1900
DGENRE=
TTITLE0=My Kind Of Country
TTITLE1=If You Gonna Play In Texas
TTITLE2=Love Reunited
TTITLE3=Achy Breaky Heart
TTITLE4=Thank God It`s Friday
TTITLE5=Streets Of Bakersfield
TTITLE6=Hello Trouble
TTITLE7=Like A Willow
TTITLE8=East Bound And Down
TTITLE9=Dixieland Delight
TTITLE10=That`ll Be The Day
TTITLE11=Too Much On The Freeways
TTITLE12=Sweet Home Alabama
TTITLE13=On The Highway Hell Is Loose
TTITLE14=Wonderful Tonight
EXTD=
EXTT0=
EXTT1=
EXTT2=
EXTT3=
EXTT4=
EXTT5=
EXTT6=
EXTT7=
EXTT8=
EXTT9=
EXTT10=
EXTT11=
EXTT12=
EXTT13=
EXTT14=
PLAYORDER=
